<?xml version="1.0" encoding="utf-8"?>
<!-- Generator: Adobe Illustrator 22.0.0, SVG Export Plug-In . SVG Version: 6.00 Build 0)  -->
<svg version="1.1" id="Layer_1" xmlns="http://www.w3.org/2000/svg" xmlns:xlink="http://www.w3.org/1999/xlink" x="0px" y="0px"
	 viewBox="0 0 125 40" style="enable-background:new 0 0 125 40;" xml:space="preserve">
<style type="text/css">
	.st0{display:none;}
	.st1{display:inline;fill:#FFFFFF;}
	.st2{fill:#24CF5F;}
</style>
<g id="bg" class="st0">
	<rect y="0" class="st1" width="125" height="40"/>
</g>
<g id="icons">
	<g>
		<g>
			<path class="st2" d="M18.6,1.3L18.6,1.3C8.1,1.3-0.1,9.7-0.1,20c0,10.3,8.4,18.7,18.8,18.7c10.3,0,18.7-8.4,18.7-18.7
				C37.4,9.7,29.1,1.3,18.6,1.3z M9.3,26.9C8.6,27,8,26.6,7.9,26c-0.1-0.6,0.3-1.3,0.9-1.4c7.1-1.6,13.3-0.9,18.2,2.1
				c0.5,0.3,0.7,1.1,0.4,1.6l0,0c-0.3,0.6-1.1,0.7-1.6,0.4C21.3,26,15.8,25.4,9.3,26.9z M29.6,23.2L29.6,23.2
				c-0.6,0.7-1.3,0.9-2,0.5c-5-3.1-12.7-4-18.7-2.2c-0.8,0.2-1.6-0.2-1.8-1c-0.2-0.8,0.2-1.6,1-1.8c6.8-2.1,15.3-1.1,21.1,2.5
				C29.8,21.6,30.2,22.5,29.6,23.2z M29.8,17.9c-6-3.6-16-3.9-21.8-2.2c-0.9,0.3-1.9-0.2-2.2-1.2c-0.3-0.9,0.2-1.9,1.2-2.2
				c6.6-2,17.6-1.6,24.6,2.5c0.8,0.5,1.1,1.6,0.6,2.4C31.7,18.1,30.7,18.4,29.8,17.9z"/>
		</g>
		<path class="st2" d="M51.1,18.6c-3.2-0.8-3.8-1.3-3.8-2.5c0-1.1,1-1.8,2.5-1.8c1.5,0,2.9,0.6,4.4,1.7c0,0,0.1,0,0.2,0
			c0.1,0,0.1,0,0.1-0.1l1.6-2.2c0.1-0.1,0-0.2,0-0.3c-1.8-1.4-3.8-2.2-6.2-2.2c-3.5,0-5.9,2.1-5.9,5.1c0,3.2,2.1,4.4,5.7,5.2
			c3.1,0.7,3.6,1.3,3.6,2.4c0,1.2-1.1,1.9-2.8,1.9c-1.9,0-3.4-0.6-5.2-2.1c0,0-0.1-0.1-0.2-0.1c-0.1,0-0.1,0-0.1,0.1l-1.8,2.1
			c-0.1,0.1-0.1,0.2,0,0.3c2,1.8,4.5,2.7,7.1,2.7c3.8,0,6.2-2.1,6.2-5.2C56.7,21,55.1,19.5,51.1,18.6L51.1,18.6z"/>
		<path class="st2" d="M65.2,15.4c-1.6,0-3,0.6-4.1,2v-1.5c0-0.1-0.1-0.2-0.2-0.2H58c-0.1,0-0.2,0.1-0.2,0.2v16.5
			c0,0.1,0.1,0.2,0.2,0.2h2.9c0.1,0,0.2-0.1,0.2-0.2v-5.2c1.1,1.2,2.4,1.8,4.1,1.8c3,0,6.1-2.3,6.1-6.8
			C71.3,17.7,68.2,15.4,65.2,15.4C65.2,15.4,65.2,15.4,65.2,15.4z M67.9,22.2c0,2.3-1.4,3.9-3.4,3.9c-2,0-3.5-1.7-3.5-3.9
			s1.5-3.9,3.5-3.9C66.5,18.3,67.9,19.9,67.9,22.2L67.9,22.2z"/>
		<path class="st2" d="M79.1,15.4c-3.9,0-7,3-7,6.8c0,3.8,3,6.8,6.9,6.8c3.9,0,7-3,7-6.8C86.1,18.4,83,15.4,79.1,15.4L79.1,15.4
			L79.1,15.4z M79.1,26c-2.1,0-3.6-1.7-3.6-3.9c0-2.2,1.5-3.8,3.6-3.8c2.1,0,3.7,1.7,3.7,3.9C82.7,24.4,81.2,26,79.1,26L79.1,26z"/>
		<path class="st2" d="M94.4,15.6h-3.2v-3.3c0-0.1-0.1-0.2-0.2-0.2h-2.9c-0.1,0-0.2,0.1-0.2,0.2v3.3h-1.4c-0.1,0-0.2,0.1-0.2,0.2
			v2.5c0,0.1,0.1,0.2,0.2,0.2h1.4V25c0,2.6,1.3,3.9,3.9,3.9c1,0,1.9-0.2,2.7-0.7c0.1,0,0.1-0.1,0.1-0.2v-2.4c0-0.1,0-0.1-0.1-0.2
			c-0.1,0-0.1,0-0.2,0c-0.6,0.3-1.1,0.4-1.7,0.4c-0.9,0-1.3-0.4-1.3-1.4v-6h3.2c0.1,0,0.2-0.1,0.2-0.2v-2.5
			C94.6,15.7,94.5,15.6,94.4,15.6L94.4,15.6z"/>
		<path class="st2" d="M105.5,15.6v-0.4c0-1.2,0.5-1.7,1.5-1.7c0.6,0,1.1,0.1,1.6,0.3c0.1,0,0.1,0,0.2,0c0.1,0,0.1-0.1,0.1-0.2v-2.4
			c0-0.1-0.1-0.2-0.2-0.2c-0.6-0.2-1.3-0.3-2.4-0.3c-2.7,0-4.1,1.5-4.1,4.4v0.6h-1.4c-0.1,0-0.2,0.1-0.2,0.2v2.5
			c0,0.1,0.1,0.2,0.2,0.2h1.4v9.9c0,0.1,0.1,0.2,0.2,0.2h2.9c0.1,0,0.2-0.1,0.2-0.2v-9.9h2.7l4.1,9.9c-0.5,1-0.9,1.3-1.6,1.3
			c-0.5,0-1-0.2-1.6-0.5c-0.1,0-0.1,0-0.2,0c-0.1,0-0.1,0.1-0.1,0.1l-1,2.2c0,0.1,0,0.2,0.1,0.3c1,0.6,1.9,0.8,3.1,0.8
			c2.1,0,3.3-1,4.4-3.7l5-13c0-0.1,0-0.1,0-0.2c0-0.1-0.1-0.1-0.2-0.1h-3c-0.1,0-0.2,0.1-0.2,0.1l-3.1,8.8l-3.4-8.8
			c0-0.1-0.1-0.1-0.2-0.1L105.5,15.6L105.5,15.6L105.5,15.6z"/>
		<path class="st2" d="M99.1,15.6h-2.9c-0.1,0-0.2,0.1-0.2,0.2v12.6c0,0.1,0.1,0.2,0.2,0.2h2.9c0.1,0,0.2-0.1,0.2-0.2V15.8
			C99.3,15.7,99.2,15.6,99.1,15.6L99.1,15.6z"/>
		<path class="st2" d="M97.6,9.9c-1.1,0-2.1,0.9-2.1,2.1s0.9,2.1,2.1,2.1s2.1-0.9,2.1-2.1C99.7,10.8,98.8,9.9,97.6,9.9L97.6,9.9z"/>
		<path class="st2" d="M123,19.7c-1.1,0-2-0.9-2-2s0.9-2,2-2c1.1,0,2,0.9,2,2C125.1,18.8,124.2,19.7,123,19.7L123,19.7z M123,15.8
			c-1,0-1.8,0.8-1.8,1.8s0.8,1.8,1.8,1.8c1,0,1.8-0.8,1.8-1.8C124.8,16.6,124.1,15.8,123,15.8L123,15.8z M123.5,17.9l0.6,0.8h-0.5
			l-0.5-0.7h-0.4v0.7h-0.4v-2.1h1c0.5,0,0.8,0.3,0.8,0.7C124,17.6,123.8,17.8,123.5,17.9C123.5,17.9,123.5,17.9,123.5,17.9z
			 M123.1,16.9h-0.5v0.7h0.5c0.3,0,0.4-0.1,0.4-0.3C123.6,17,123.4,16.9,123.1,16.9L123.1,16.9z"/>
	</g>
</g>
</svg>
