<?xml version="1.0" encoding="utf-8"?>
<!-- Generator: Adobe Illustrator 22.0.0, SVG Export Plug-In . SVG Version: 6.00 Build 0)  -->
<svg version="1.1" id="Layer_1" xmlns="http://www.w3.org/2000/svg" xmlns:xlink="http://www.w3.org/1999/xlink" x="0px" y="0px"
	 viewBox="0 0 125 40" style="enable-background:new 0 0 125 40;" xml:space="preserve">
<style type="text/css">
	.st0{display:none;}
	.st1{display:inline;fill:#FFFFFF;}
	.st2{fill:#FFFFFF;}
</style>
<g id="bg" class="st0">
	<rect y="0" class="st1" width="125" height="40"/>
</g>
<g id="icons">
	<g>
		<g>
			<path class="st2" d="M68.7,27.7c0-0.1,0-0.2,0-0.3c0-4.9,0-9.9,0-14.8c0-0.1,0-0.2,0-0.3c0.1,0,0.1,0,0.2,0c1.9,0,3.9,0,5.9,0
				c1.5,0,2.9,0.3,4.2,1c2.1,1,3.3,2.7,3.7,5c0.3,1.4,0.2,2.7-0.2,4.1c-0.6,2-1.9,3.4-3.7,4.3c-1,0.5-2,0.8-3.2,0.9
				c-0.2,0-0.4,0.1-0.5,0.1C72.9,27.7,70.8,27.7,68.7,27.7z M72.1,24.6c0.1,0,0.1,0,0.2,0c0.7,0,1.4,0,2.2,0c0.5,0,1-0.1,1.5-0.2
				c1.6-0.5,2.6-1.5,3.1-3.1c0.2-0.8,0.2-1.7,0.1-2.5c-0.3-1.3-1-2.3-2.3-3c-0.7-0.4-1.5-0.5-2.3-0.5c-0.7,0-1.5,0-2.2,0
				c-0.1,0-0.1,0-0.2,0C72.1,18.4,72.1,21.5,72.1,24.6z"/>
			<path class="st2" d="M89.8,27.7c0-0.1,0-0.1,0.1-0.2c2.1-5,4.2-10,6.2-15c0-0.1,0.1-0.1,0.1-0.2c1.2,0,2.4,0,3.6,0
				c0.1,0.2,0.2,0.5,0.3,0.7c2,4.8,4,9.6,5.9,14.4c0,0.1,0,0.2,0.1,0.3c-1.3,0-2.5,0-3.8,0c0,0,0-0.1,0-0.1c-0.3-0.9-0.7-1.8-1-2.7
				c0-0.1-0.1-0.2-0.1-0.3c-2.2,0-4.3,0-6.5,0c-0.4,1-0.8,2-1.1,3C92.2,27.7,91,27.7,89.8,27.7z M100.2,21.9c-0.8-2-1.5-4-2.3-6
				c-0.2,0.4-2.3,5.8-2.3,6C97.1,21.9,98.6,21.9,100.2,21.9z"/>
			<path class="st2" d="M30.5,12.3c2.4,0,4.9,0,7.3,0c1.6,0,3.3,0,4.9,0c0.1,0,0.2,0,0.3,0c0,0.2,0.1,2.6,0,3c-1.5,0-3,0-4.5,0
				c0,0.1,0,0.2,0,0.3c0,1.1,0,2.2,0,3.2c0,2.9,0,5.7,0,8.6c0,0.1,0,0.2,0,0.3c-1.2,0-2.3,0-3.5,0c0-0.1,0-0.2,0-0.3
				c0-3.9,0-7.9,0-11.8c0-0.1,0-0.2,0-0.3c-1.5,0-3,0-4.5,0C30.5,14.3,30.5,13.3,30.5,12.3z"/>
			<path class="st2" d="M115.4,27.7c0-0.1,0-0.2,0-0.2c0-4.9,0-9.9,0-14.8c0-0.1,0-0.2,0-0.3c0.2,0,3.3-0.1,3.5,0
				c0,4.1,0,8.2,0,12.3c0.1,0,0.1,0,0.2,0c1.9,0,3.8,0,5.7,0c0.1,0,0.1,0,0.2,0c0,1,0,2.1,0,3.1C121.8,27.7,118.6,27.7,115.4,27.7z"
				/>
			<path class="st2" d="M53.5,27.7c0-5.1,0-10.2,0-15.4c0.2,0,3.2-0.1,3.5,0c0,0.1,0,0.1,0,0.2c0,5,0,10.1,0,15.1c0,0,0,0.1,0,0.1
				C55.8,27.7,54.7,27.7,53.5,27.7z"/>
		</g>
		<g>
			<path class="st2" d="M21,11.6c0,0.1,0.1,0.1,0.1,0.2c1.3,1.3,2.6,2.6,3.8,3.8c0.1,0.1,0.1,0.1,0.2,0.1c-1.4,1.4-2.8,2.8-4.2,4.2
				c-1.4-1.4-2.7-2.7-4.1-4.1c-1.4,1.4-2.8,2.8-4.2,4.2c-1.4-1.4-2.8-2.8-4.2-4.2C7,17.2,5.6,18.6,4.2,20c-1.4-1.4-2.8-2.8-4.2-4.2
				c0,0,0.1-0.1,0.1-0.1c1.3-1.3,2.6-2.6,3.9-3.9c0.1-0.1,0.1-0.1,0.1-0.2c0,0,0,0,0,0c0,0,0,0.1,0.1,0.1c1.3,1.3,2.7,2.7,4,4
				c0,0,0.1,0.1,0.1,0.1c0.1,0,0.1-0.1,0.1-0.1c1.3-1.3,2.6-2.6,3.9-3.9c0,0,0.1-0.1,0.1-0.1c0,0,0,0,0,0c1.4,1.4,2.8,2.8,4.2,4.2
				c0.1-0.1,0.1-0.1,0.2-0.2c1.3-1.3,2.6-2.6,3.9-3.9C20.9,11.7,20.9,11.7,21,11.6C20.9,11.6,20.9,11.6,21,11.6z"/>
			<path class="st2" d="M8.4,24.2c1.4-1.4,2.8-2.8,4.1-4.1c1.4,1.4,2.8,2.8,4.1,4.1c-1.4,1.4-2.8,2.8-4.1,4.1
				C11.2,27,9.8,25.6,8.4,24.2z"/>
		</g>
	</g>
</g>
</svg>
