<?xml version="1.0" encoding="utf-8"?>
<!-- Generator: Adobe Illustrator 22.0.0, SVG Export Plug-In . SVG Version: 6.00 Build 0)  -->
<svg version="1.0" id="Layer_1" xmlns="http://www.w3.org/2000/svg" xmlns:xlink="http://www.w3.org/1999/xlink" x="0px" y="0px"
	 viewBox="0 0 125 40" style="enable-background:new 0 0 125 40;" xml:space="preserve">
<style type="text/css">
	.st0{fill:#FFFFFF;}
	.st1{fill:url(#SVGID_1_);}
</style>
<path class="st0" d="M44.8,22.2h-4.4l-1.1,3.1h-1.9l4.2-11.5h1.9l4.2,11.5h-1.9L44.8,22.2z M40.8,20.7h3.5l-1.7-5.1h0L40.8,20.7z"/>
<path class="st0" d="M56.7,21.1c0,2.6-1.4,4.3-3.5,4.3c-1.1,0.1-2.1-0.5-2.6-1.5h0v4.2h-1.7V16.9h1.7v1.4h0c0.5-1,1.6-1.5,2.7-1.5
	C55.3,16.8,56.7,18.5,56.7,21.1z M54.9,21.1c0-1.7-0.9-2.8-2.2-2.8c-1.3,0-2.2,1.1-2.2,2.8c0,1.7,0.9,2.8,2.2,2.8
	C54,23.9,54.9,22.8,54.9,21.1z"/>
<path class="st0" d="M65.9,21.1c0,2.6-1.4,4.3-3.5,4.3c-1.1,0.1-2.1-0.5-2.6-1.5h0v4.2H58V16.9h1.7v1.4h0c0.5-1,1.6-1.5,2.7-1.5
	C64.5,16.8,65.9,18.5,65.9,21.1z M64.2,21.1c0-1.7-0.9-2.8-2.2-2.8c-1.3,0-2.2,1.1-2.2,2.8c0,1.7,0.9,2.8,2.2,2.8
	C63.3,23.9,64.2,22.8,64.2,21.1z"/>
<path class="st0" d="M67.3,13.8H69v11.5h-1.7V13.8z"/>
<path class="st0" d="M78,22.8c-0.4,1.6-1.9,2.7-3.6,2.6c-2.4,0-4-1.6-4-4.3c0-2.6,1.5-4.3,3.9-4.3c2.3,0,3.8,1.6,3.8,4.1v0.6h-5.9
	v0.1c-0.1,0.6,0.2,1.2,0.6,1.7c0.4,0.5,1,0.7,1.7,0.7c0.8,0.1,1.6-0.4,1.9-1.2H78z M72.2,20.3h4.2c0-0.6-0.2-1.1-0.6-1.5
	c-0.4-0.4-0.9-0.6-1.5-0.6c-0.6,0-1.1,0.2-1.5,0.6C72.4,19.2,72.2,19.7,72.2,20.3z"/>
<path class="st0" d="M93,25.3v-8.5h-0.1l-3.5,8.4h-1.3l-3.5-8.4h-0.1v8.5H83V13.8H85l3.7,9.1h0.1l3.7-9.1h2.1v11.5H93z"/>
<path class="st0" d="M103.8,25.3h-1.7v-1.4h0c-0.5,1-1.5,1.6-2.6,1.5c-0.8,0-1.6-0.3-2.2-0.9c-0.6-0.6-0.8-1.4-0.8-2.2v-5.4h1.7v5.1
	c0,1.3,0.6,2,1.8,2c0.6,0,1.1-0.2,1.5-0.6c0.4-0.4,0.6-1,0.5-1.5v-4.8h1.7L103.8,25.3z"/>
<path class="st0" d="M108.7,16.8c1.9,0,3.2,1,3.2,2.5h-1.6c-0.1-0.7-0.7-1.2-1.7-1.2c-0.9,0-1.6,0.4-1.6,1.1c0,0.5,0.4,0.8,1.3,1.1
	l1.4,0.3c1.7,0.4,2.3,1,2.3,2.3c0,1.5-1.4,2.6-3.5,2.6c-2,0-3.3-1-3.4-2.5h1.7c0.1,0.8,0.8,1.2,1.8,1.2c1,0,1.7-0.4,1.7-1.1
	c0-0.5-0.3-0.8-1.2-1l-1.5-0.4c-1.5-0.4-2.3-1.1-2.3-2.3C105.4,17.8,106.7,16.8,108.7,16.8z"/>
<path class="st0" d="M113.5,14.7c0-0.4,0.2-0.8,0.6-0.9c0.4-0.2,0.8-0.1,1.1,0.2c0.3,0.3,0.4,0.7,0.2,1.1c-0.2,0.4-0.5,0.6-0.9,0.6
	C113.9,15.7,113.5,15.2,113.5,14.7z M113.6,16.9h1.7v8.4h-1.7V16.9z"/>
<path class="st0" d="M122.7,19.8c-0.2-1-1-1.6-2-1.5c-1.3,0-2.2,1.1-2.2,2.9c0,1.8,0.9,2.9,2.2,2.9c0.9,0.1,1.8-0.6,2-1.5h1.7
	c-0.2,1.8-1.8,3.1-3.6,2.9c-2.4,0-4-1.6-4-4.3c0-2.6,1.6-4.3,3.9-4.3c1.8-0.2,3.4,1.2,3.6,3L122.7,19.8z"/>
<linearGradient id="SVGID_1_" gradientUnits="userSpaceOnUse" x1="17" y1="4.4103" x2="17" y2="37.545" gradientTransform="matrix(1 0 0 -1 0 41.276)">
	<stop  offset="0" style="stop-color:#FA233B"/>
	<stop  offset="1" style="stop-color:#FB5C74"/>
</linearGradient>
<path class="st1" d="M34,13.6c0-0.4,0-0.8,0-1.2c0-0.3,0-0.7,0-1c0-0.7-0.1-1.5-0.2-2.2c-0.1-0.7-0.4-1.5-0.7-2.1
	c-0.7-1.3-1.8-2.4-3.1-3.1c-0.7-0.3-1.4-0.6-2.1-0.7C27.1,3.1,26.4,3,25.6,3c-0.3,0-0.7,0-1,0H9.4c-0.3,0-0.7,0-1,0
	C7.6,3,6.9,3.1,6.2,3.2C5.4,3.3,4.7,3.6,4,3.9C2.7,4.6,1.6,5.7,0.9,7C0.6,7.7,0.3,8.4,0.2,9.2C0.1,9.9,0,10.6,0,11.4
	c0,0.3,0,0.7,0,1c0,0.4,0,0.8,0,1.2v12.7c0,0.4,0,0.8,0,1.2c0,0.3,0,0.7,0,1c0,0.7,0.1,1.5,0.2,2.2c0.1,0.7,0.4,1.5,0.7,2.1
	c0.7,1.3,1.8,2.4,3.1,3.1c0.7,0.3,1.4,0.6,2.1,0.7C6.9,36.9,7.6,37,8.4,37c0.3,0,0.7,0,1,0c0.4,0,0.8,0,1.2,0h13.9c0.3,0,0.7,0,1,0
	c0.7,0,1.5-0.1,2.2-0.2c0.7-0.1,1.5-0.4,2.1-0.7c1.3-0.7,2.4-1.8,3.1-3.1c0.3-0.7,0.6-1.4,0.7-2.1c0.1-0.7,0.2-1.5,0.2-2.2
	c0-0.3,0-0.7,0-1c0-0.4,0-0.8,0-1.2L34,13.6L34,13.6z"/>
<path class="st0" d="M24,8.2c-0.1,0-0.8,0.1-0.9,0.2l-10.1,2c-0.2,0-0.4,0.1-0.6,0.3c-0.2,0.2-0.3,0.4-0.3,0.7c0,0.1,0,0.2,0,0.3
	v12.6c0,0.3-0.1,0.6-0.2,0.8c-0.2,0.2-0.5,0.3-0.7,0.4l-0.7,0.1c-0.6,0.1-1.3,0.3-1.9,0.5c-0.4,0.1-0.8,0.4-1.1,0.7
	c-1,1.1-0.9,2.8,0.1,3.8c0.3,0.3,0.8,0.5,1.2,0.6c0.5,0.1,1,0.1,1.8-0.1c0.4-0.1,0.8-0.2,1.2-0.4c0.4-0.2,0.7-0.5,0.9-0.9
	c0.2-0.4,0.4-0.7,0.5-1.2c0.1-0.4,0.1-0.8,0.1-1.3v-11c0-0.6,0.2-0.7,0.6-0.8c0,0,8.4-1.7,8.8-1.8c0.5-0.1,0.8,0.1,0.8,0.6V22
	c0,0.3,0,0.6-0.2,0.9c-0.2,0.2-0.5,0.3-0.7,0.4L22,23.3c-0.6,0.1-1.3,0.3-1.9,0.5c-0.4,0.2-0.8,0.4-1.1,0.7
	c-0.5,0.5-0.8,1.2-0.7,1.9c0,0.7,0.3,1.4,0.9,1.9c0.3,0.3,0.8,0.5,1.2,0.6c0.5,0.1,1,0.1,1.8-0.1c0.4-0.1,0.8-0.2,1.2-0.4
	c0.4-0.2,0.7-0.5,0.9-0.9c0.2-0.4,0.4-0.7,0.5-1.2c0.1-0.4,0.1-0.8,0.1-1.3v-16C24.9,8.5,24.6,8.1,24,8.2z"/>
</svg>
