<?xml version="1.0" encoding="utf-8"?>
<!-- Generator: Adobe Illustrator 22.0.0, SVG Export Plug-In . SVG Version: 6.00 Build 0)  -->
<svg version="1.1" id="Layer_1" xmlns="http://www.w3.org/2000/svg" xmlns:xlink="http://www.w3.org/1999/xlink" x="0px" y="0px"
	 viewBox="0 0 125 40" style="enable-background:new 0 0 125 40;" xml:space="preserve">
<style type="text/css">
	.st0{display:none;}
	.st1{display:inline;fill:#FFFFFF;}
	.st2{fill:#FF0000;}
	.st3{fill:#FFFFFF;}
</style>
<g id="bg" class="st0">
	<rect y="0" class="st1" width="125" height="40"/>
</g>
<g id="icons">
	<g>
		<g>
			<path class="st2" d="M39,10.4c-0.5-1.7-1.8-3.1-3.5-3.5C32.4,6,19.9,6,19.9,6S7.5,6,4.4,6.9c-1.7,0.5-3.1,1.8-3.5,3.5
				C0,13.5,0,20,0,20s0,6.5,0.8,9.6c0.5,1.7,1.8,3.1,3.5,3.5C7.5,34,19.9,34,19.9,34s12.5,0,15.6-0.8c1.7-0.5,3.1-1.8,3.5-3.5
				c0.8-3.1,0.8-9.6,0.8-9.6S39.9,13.5,39,10.4z"/>
			<polygon class="st3" points="15.9,26 26.3,20 15.9,14 			"/>
		</g>
		<g>
			<g>
				<path class="st3" d="M57.9,31.4c-0.8-0.5-1.3-1.4-1.7-2.5c-0.3-1.1-0.5-2.6-0.5-4.5v-2.5c0-1.9,0.2-3.4,0.6-4.5s1-2,1.8-2.5
					c0.8-0.5,1.9-0.8,3.2-0.8c1.3,0,2.3,0.3,3.1,0.8c0.8,0.5,1.3,1.4,1.7,2.5c0.4,1.1,0.5,2.6,0.5,4.5v2.5c0,1.9-0.2,3.4-0.5,4.5
					c-0.4,1.1-0.9,2-1.7,2.5c-0.8,0.5-1.9,0.8-3.2,0.8C59.7,32.2,58.7,32,57.9,31.4z M62.3,28.7c0.2-0.6,0.3-1.5,0.3-2.8v-5.4
					c0-1.3-0.1-2.2-0.3-2.8c-0.2-0.6-0.6-0.9-1.2-0.9c-0.5,0-0.9,0.3-1.1,0.9c-0.2,0.6-0.3,1.5-0.3,2.8v5.4c0,1.3,0.1,2.2,0.3,2.8
					c0.2,0.6,0.6,0.9,1.1,0.9S62.1,29.3,62.3,28.7z"/>
				<path class="st3" d="M118.4,24.5v0.9c0,1.1,0,2,0.1,2.5c0.1,0.6,0.2,1,0.4,1.2s0.5,0.4,1,0.4c0.6,0,1-0.2,1.2-0.7
					c0.2-0.5,0.3-1.2,0.4-2.3l3.4,0.2c0,0.2,0,0.4,0,0.6c0,1.6-0.4,2.8-1.3,3.6c-0.9,0.8-2.1,1.2-3.7,1.2c-1.9,0-3.3-0.6-4.1-1.8
					c-0.8-1.2-1.2-3.1-1.2-5.6v-3.1c0-2.6,0.4-4.5,1.2-5.7c0.8-1.2,2.2-1.8,4.1-1.8c1.3,0,2.4,0.2,3.1,0.7s1.2,1.3,1.5,2.3
					c0.3,1,0.4,2.5,0.4,4.3v3L118.4,24.5L118.4,24.5z M118.9,17.2c-0.2,0.2-0.3,0.7-0.4,1.2c-0.1,0.6-0.1,1.4-0.1,2.6v1.3h2.9v-1.3
					c0-1.1,0-2-0.1-2.6c-0.1-0.6-0.2-1-0.4-1.2c-0.2-0.2-0.5-0.4-0.9-0.4C119.4,16.8,119.1,16.9,118.9,17.2z"/>
				<path class="st3" d="M48.3,24.2L43.8,8h3.9l1.6,7.3c0.4,1.8,0.7,3.3,0.9,4.6h0.1c0.1-0.9,0.4-2.4,0.9-4.6L52.8,8h3.9l-4.5,16.2
					v7.8h-3.9L48.3,24.2L48.3,24.2z"/>
				<path class="st3" d="M79.3,14.5v17.5h-3.1l-0.3-2.1h-0.1c-0.8,1.6-2.1,2.4-3.8,2.4c-1.2,0-2-0.4-2.6-1.1s-0.8-1.9-0.8-3.6V14.5
					h3.9v12.8c0,0.8,0.1,1.3,0.3,1.7c0.2,0.3,0.5,0.5,0.9,0.5c0.3,0,0.7-0.1,1-0.3c0.3-0.2,0.5-0.5,0.7-0.8V14.5H79.3z"/>
				<path class="st3" d="M99.5,14.5v17.5h-3.1L96,29.8h-0.1c-0.8,1.6-2.1,2.4-3.8,2.4c-1.2,0-2-0.4-2.6-1.1s-0.8-1.9-0.8-3.6V14.5
					h3.9v12.8c0,0.8,0.1,1.3,0.3,1.7c0.2,0.3,0.5,0.5,0.9,0.5c0.3,0,0.7-0.1,1-0.3c0.3-0.2,0.5-0.5,0.7-0.8V14.5H99.5z"/>
				<path class="st3" d="M90,11.2h-3.9v20.8h-3.8V11.2h-3.9V8H90L90,11.2L90,11.2z"/>
				<path class="st3" d="M112.5,17.3c-0.2-1.1-0.6-1.9-1.2-2.4c-0.5-0.5-1.3-0.7-2.2-0.7c-0.7,0-1.4,0.2-2,0.6s-1.1,0.9-1.5,1.6h0
					V7.1h-3.8v24.8h3.3l0.4-1.7h0.1c0.3,0.6,0.8,1.1,1.4,1.4c0.6,0.3,1.3,0.5,2,0.5c1.3,0,2.3-0.6,2.9-1.8s0.9-3.1,0.9-5.7v-2.8
					C112.8,19.9,112.7,18.4,112.5,17.3z M108.9,24.4c0,1.3-0.1,2.3-0.2,3c-0.1,0.7-0.3,1.2-0.5,1.5c-0.2,0.3-0.6,0.5-1,0.5
					c-0.3,0-0.6-0.1-0.9-0.2c-0.3-0.2-0.5-0.4-0.7-0.7v-9.9c0.1-0.5,0.4-0.9,0.7-1.2s0.7-0.5,1.1-0.5c0.4,0,0.7,0.2,0.9,0.5
					c0.2,0.3,0.4,0.8,0.5,1.6c0.1,0.7,0.1,1.8,0.1,3.2V24.4z"/>
			</g>
		</g>
	</g>
</g>
</svg>
