<?xml version="1.0" encoding="utf-8"?>
<!-- Generator: Adobe Illustrator 22.0.0, SVG Export Plug-In . SVG Version: 6.00 Build 0)  -->
<svg version="1.1" id="Layer_1" xmlns="http://www.w3.org/2000/svg" xmlns:xlink="http://www.w3.org/1999/xlink" x="0px" y="0px"
	 viewBox="0 0 125 40" style="enable-background:new 0 0 125 40;" xml:space="preserve">
<style type="text/css">
	.st0{display:none;}
	.st1{display:inline;fill:#FFFFFF;}
	.st2{filter:url(#Adobe_OpacityMaskFilter);}
	.st3{fill:#FFFFFF;}
	.st4{mask:url(#mask-2_2_);}
	.st5{filter:url(#Adobe_OpacityMaskFilter_1_);}
	.st6{mask:url(#mask-4_2_);fill:url(#Rectangle-path_6_);}
	.st7{filter:url(#Adobe_OpacityMaskFilter_2_);}
	.st8{mask:url(#mask-12_1_);}
	.st9{filter:url(#Adobe_OpacityMaskFilter_3_);}
	.st10{mask:url(#mask-14_1_);fill:url(#Rectangle-path_7_);}
	.st11{filter:url(#Adobe_OpacityMaskFilter_4_);}
	.st12{mask:url(#mask-17_1_);}
	.st13{filter:url(#Adobe_OpacityMaskFilter_5_);}
	.st14{mask:url(#mask-19_1_);fill:url(#Rectangle-path_8_);}
	.st15{filter:url(#Adobe_OpacityMaskFilter_6_);}
	.st16{mask:url(#mask-22_1_);}
	.st17{filter:url(#Adobe_OpacityMaskFilter_7_);}
	.st18{mask:url(#mask-24_1_);fill:url(#Rectangle-path_9_);}
	.st19{filter:url(#Adobe_OpacityMaskFilter_8_);}
	.st20{mask:url(#mask-27_1_);}
	.st21{filter:url(#Adobe_OpacityMaskFilter_9_);}
	.st22{mask:url(#mask-29_1_);fill:url(#Rectangle-path_10_);}
	.st23{filter:url(#Adobe_OpacityMaskFilter_10_);}
	.st24{mask:url(#mask-32_1_);fill:#FFFFFF;}
	.st25{filter:url(#Adobe_OpacityMaskFilter_11_);}
	.st26{mask:url(#mask-7_1_);}
	.st27{filter:url(#Adobe_OpacityMaskFilter_12_);}
	.st28{mask:url(#mask-9_1_);fill:url(#Rectangle-path_11_);}
</style>
<g id="bg" class="st0">
	<rect y="0" class="st1" width="125" height="40"/>
</g>
<g id="icons">
	<g>
		<g>
			<g id="Clipped">
				<defs>
					<filter id="Adobe_OpacityMaskFilter" filterUnits="userSpaceOnUse" x="0" y="7.2" width="25.5" height="25.5">
						<feColorMatrix  type="matrix" values="1 0 0 0 0  0 1 0 0 0  0 0 1 0 0  0 0 0 1 0"/>
					</filter>
				</defs>
				<mask maskUnits="userSpaceOnUse" x="0" y="7.2" width="25.5" height="25.5" id="mask-2_2_">
					<g class="st2">
						<rect id="path-1_2_" y="7.2" class="st3" width="25.5" height="25.5"/>
					</g>
				</mask>
				<g class="st4">
					<defs>
						<filter id="Adobe_OpacityMaskFilter_1_" filterUnits="userSpaceOnUse" x="0" y="7.2" width="25.5" height="25.5">
							<feColorMatrix  type="matrix" values="1 0 0 0 0  0 1 0 0 0  0 0 1 0 0  0 0 0 1 0"/>
						</filter>
					</defs>
					<mask maskUnits="userSpaceOnUse" x="0" y="7.2" width="25.5" height="25.5" id="mask-4_2_">
						<g class="st5">
							<path id="path-3_2_" class="st3" d="M7.8,7.2c-0.3,0-0.5,0-0.8,0c-0.3,0-0.5,0-0.8,0c-0.6,0-1.1,0-1.7,0.1
								C4.1,7.5,3.5,7.7,3,7.9c-0.5,0.3-1,0.6-1.4,1c-0.4,0.4-0.7,0.9-1,1.4c-0.3,0.5-0.4,1-0.5,1.6C0.1,12.4,0,13,0,13.5
								c0,0.3,0,0.5,0,0.8c0,0.2,0,0.5,0,0.7v0.2v9.6V25c0,0.2,0,0.5,0,0.7c0,0.3,0,0.5,0,0.8c0,0.6,0,1.1,0.1,1.7
								c0.1,0.6,0.3,1.1,0.5,1.6c0.3,0.5,0.6,1,1,1.4s0.9,0.7,1.4,1c0.5,0.3,1,0.4,1.6,0.5c0.6,0.1,1.1,0.1,1.7,0.1
								c0.3,0,0.5,0,0.8,0c0.3,0,0.5,0,0.8,0H8h9.6h0.2c0.3,0,0.5,0,0.8,0c0.3,0,0.5,0,0.8,0c0.6,0,1.1,0,1.7-0.1
								c0.6-0.1,1.1-0.3,1.6-0.5c0.5-0.3,1-0.6,1.4-1c0.4-0.4,0.7-0.9,1-1.4c0.3-0.5,0.4-1,0.5-1.6c0.1-0.6,0.1-1.1,0.1-1.7
								c0-0.3,0-0.5,0-0.8c0-0.2,0-0.5,0-0.7V15c0-0.2,0-0.5,0-0.7c0-0.3,0-0.5,0-0.8c0-0.6,0-1.1-0.1-1.7c-0.1-0.6-0.3-1.1-0.5-1.6
								c-0.3-0.5-0.6-1-1-1.4c-0.4-0.4-0.9-0.7-1.4-1c-0.5-0.3-1-0.4-1.6-0.5c-0.6-0.1-1.1-0.1-1.7-0.1c-0.3,0-0.5,0-0.8,0
								c-0.3,0-0.5,0-0.8,0L7.8,7.2L7.8,7.2z"/>
						</g>
					</mask>
					
						<linearGradient id="Rectangle-path_6_" gradientUnits="userSpaceOnUse" x1="-729.291" y1="500.456" x2="-729.291" y2="501.4704" gradientTransform="matrix(25.164 0 0 25.164 18364.6387 -12586.2373)">
						<stop  offset="0" style="stop-color:#EF4DB7"/>
						<stop  offset="1" style="stop-color:#C643FD"/>
					</linearGradient>
					<rect id="Rectangle-path" y="7.2" class="st6" width="25.5" height="25.5"/>
				</g>
			</g>
			<g id="Artboard-Copy-2">
				<g id="US_UK_iTunes_Store_Buy_Lockup_RGB_blk">
					<path id="Shape_3_" class="st3" d="M31.4,14.1c0-0.6,0.5-1.1,1.1-1.1c0.6,0,1.1,0.5,1.1,1.1c0,0.6-0.5,1.1-1.1,1.1
						C31.9,15.2,31.4,14.7,31.4,14.1z M31.5,16.5h1.9v9.2h-1.9C31.5,25.7,31.5,16.5,31.5,16.5z M38.5,25.7V14.8h-3.9v-1.7h9.7v1.7
						h-3.9v10.9L38.5,25.7L38.5,25.7L38.5,25.7z M52.2,25.7h-1.8v-1.6h0c-0.5,1.1-1.4,1.7-2.9,1.7c-2,0-3.2-1.3-3.2-3.4v-5.9h1.9
						v5.5c0,1.4,0.7,2.1,2,2.1c1.4,0,2.2-0.9,2.2-2.4v-5.3h1.9L52.2,25.7L52.2,25.7L52.2,25.7z M54,16.5h1.8v1.6h0
						c0.6-1.1,1.5-1.7,2.9-1.7c2,0,3.2,1.3,3.2,3.4v5.9h-1.9v-5.5c0-1.4-0.6-2.2-2-2.2c-1.4,0-2.2,1-2.2,2.4v5.3H54L54,16.5L54,16.5
						L54,16.5z M71.7,23c-0.3,1.7-1.9,2.8-4,2.8c-2.7,0-4.3-1.8-4.3-4.7c0-2.9,1.7-4.8,4.3-4.8c2.5,0,4.1,1.7,4.1,4.5v0.6h-6.5v0.1
						c0,1.6,1,2.6,2.5,2.6c1.1,0,1.9-0.5,2.1-1.3H71.7z M65.3,20.3h4.6c0-1.4-0.9-2.3-2.3-2.3C66.3,18,65.4,18.9,65.3,20.3z
						 M76.7,16.4c2,0,3.5,1.1,3.5,2.8h-1.8c-0.1-0.8-0.8-1.3-1.8-1.3c-1,0-1.7,0.5-1.7,1.2c0,0.6,0.5,0.9,1.4,1.2l1.5,0.4
						c1.9,0.4,2.6,1.1,2.6,2.5c0,1.7-1.6,2.8-3.8,2.8c-2.2,0-3.6-1.1-3.8-2.8h1.9c0.1,0.9,0.8,1.4,2,1.4c1.1,0,1.8-0.5,1.8-1.2
						c0-0.6-0.3-0.9-1.3-1.1l-1.6-0.4c-1.7-0.4-2.5-1.3-2.5-2.5C73,17.6,74.5,16.4,76.7,16.4z M87.1,22.2c0.1,1.3,1.4,2.1,3,2.1
						c1.6,0,2.7-0.8,2.7-2c0-1-0.7-1.6-2.3-2L88.9,20c-2.3-0.6-3.4-1.6-3.4-3.4c0-2.2,1.9-3.7,4.6-3.7c2.7,0,4.5,1.5,4.6,3.7h-1.9
						c-0.1-1.3-1.2-2-2.7-2s-2.6,0.8-2.6,1.9c0,0.9,0.7,1.4,2.3,1.8l1.4,0.3c2.6,0.6,3.7,1.7,3.7,3.5c0,2.4-1.9,3.8-4.9,3.8
						c-2.8,0-4.7-1.4-4.8-3.7L87.1,22.2L87.1,22.2L87.1,22.2z M98.8,14.4v2.2h1.7V18h-1.7v5.1c0,0.8,0.3,1.2,1.1,1.2
						c0.2,0,0.5,0,0.6,0v1.5c-0.2,0.1-0.6,0.1-1.1,0.1c-1.9,0-2.6-0.7-2.6-2.5V18h-1.3v-1.5h1.3v-2.2L98.8,14.4
						C98.8,14.4,98.8,14.4,98.8,14.4z M101.3,21.1c0-2.9,1.7-4.7,4.4-4.7c2.7,0,4.4,1.8,4.4,4.7c0,2.9-1.7,4.7-4.4,4.7
						C103,25.9,101.3,24.1,101.3,21.1z M108.1,21.1c0-2-0.9-3.2-2.4-3.2s-2.4,1.2-2.4,3.2c0,2,0.9,3.2,2.4,3.2
						S108.1,23.1,108.1,21.1z M111.5,16.5h1.8v1.6h0c0.3-1,1.1-1.7,2.2-1.7c0.3,0,0.5,0,0.6,0.1v1.8c-0.1-0.1-0.5-0.1-0.8-0.1
						c-1.2,0-2,0.8-2,2.1v5.5h-1.9L111.5,16.5L111.5,16.5L111.5,16.5z M124.9,23c-0.3,1.7-1.9,2.8-4,2.8c-2.7,0-4.3-1.8-4.3-4.7
						c0-2.9,1.7-4.8,4.3-4.8c2.5,0,4.1,1.7,4.1,4.5v0.6h-6.5v0.1c0,1.6,1,2.6,2.5,2.6c1.1,0,1.9-0.5,2.1-1.3H124.9z M118.5,20.3h4.6
						c0-1.4-0.9-2.3-2.3-2.3C119.6,18,118.6,18.9,118.5,20.3z"/>
					<g id="Group_2_">
						<g id="Clipped_2_">
							<defs>
								<filter id="Adobe_OpacityMaskFilter_2_" filterUnits="userSpaceOnUse" x="12.8" y="21.6" width="6" height="6.8">
									<feColorMatrix  type="matrix" values="1 0 0 0 0  0 1 0 0 0  0 0 1 0 0  0 0 0 1 0"/>
								</filter>
							</defs>
							<mask maskUnits="userSpaceOnUse" x="12.8" y="21.6" width="6" height="6.8" id="mask-12_1_">
								<g class="st7">
									<rect id="path-11_1_" y="7.2" class="st3" width="25.5" height="25.5"/>
								</g>
							</mask>
							<g class="st8">
								<g transform="translate(12.000000, 14.000000)">
									<defs>
										<filter id="Adobe_OpacityMaskFilter_3_" filterUnits="userSpaceOnUse" x="0.8" y="7.6" width="6" height="6.8">
											<feColorMatrix  type="matrix" values="1 0 0 0 0  0 1 0 0 0  0 0 1 0 0  0 0 0 1 0"/>
										</filter>
									</defs>
									<mask maskUnits="userSpaceOnUse" x="0.8" y="7.6" width="6" height="6.8" id="mask-14_1_">
										<g class="st9">
											<path id="path-13_1_" class="st3" d="M0.8,10.5l4.5,3.2c0.2,0.2,0.5,0.3,0.7,0.5c0.1,0.1,0.2,0.1,0.3,0.1c0,0,0,0,0,0
												c0.1,0,0.1,0,0.2,0c0.1,0,0.1,0,0.2-0.1c0,0,0.1-0.1,0.1-0.1c0-0.1,0-0.1,0-0.2c0,0,0,0,0,0c0-0.1,0-0.2,0-0.3
												c-0.1-0.3-0.2-0.6-0.2-0.8L4.7,7.6L0.8,10.5z"/>
										</g>
									</mask>
									
										<radialGradient id="Rectangle-path_7_" cx="-656.834" cy="655.5835" r="4.500000e-03" gradientTransform="matrix(5.882 0 0 5.882 3852.0649 -3845.6143)" gradientUnits="userSpaceOnUse">
										<stop  offset="0" style="stop-color:#F9E3FB"/>
										<stop  offset="0.7459" style="stop-color:#F9E3FB"/>
										<stop  offset="0.8097" style="stop-color:#F8DEFB"/>
										<stop  offset="0.8826" style="stop-color:#F3D0FA"/>
										<stop  offset="0.9599" style="stop-color:#ECBAF9"/>
										<stop  offset="0.981" style="stop-color:#EAB2F9"/>
										<stop  offset="1" style="stop-color:#EAB2F9"/>
									</radialGradient>
									<rect id="Rectangle-path_2_" x="0.8" y="7.6" class="st10" width="6" height="6.8"/>
								</g>
							</g>
						</g>
						<g id="Clipped_3_">
							<defs>
								<filter id="Adobe_OpacityMaskFilter_4_" filterUnits="userSpaceOnUse" x="3.3" y="17" width="7" height="4.7">
									<feColorMatrix  type="matrix" values="1 0 0 0 0  0 1 0 0 0  0 0 1 0 0  0 0 0 1 0"/>
								</filter>
							</defs>
							<mask maskUnits="userSpaceOnUse" x="3.3" y="17" width="7" height="4.7" id="mask-17_1_">
								<g class="st11">
									<rect id="path-16_1_" y="7.2" class="st3" width="25.5" height="25.5"/>
								</g>
							</mask>
							<g class="st12">
								<g transform="translate(3.000000, 9.000000)">
									<defs>
										<filter id="Adobe_OpacityMaskFilter_5_" filterUnits="userSpaceOnUse" x="0.3" y="8" width="7" height="4.7">
											<feColorMatrix  type="matrix" values="1 0 0 0 0  0 1 0 0 0  0 0 1 0 0  0 0 0 1 0"/>
										</filter>
									</defs>
									<mask maskUnits="userSpaceOnUse" x="0.3" y="8" width="7" height="4.7" id="mask-19_1_">
										<g class="st13">
											<path id="path-18_1_" class="st3" d="M1.8,8C1.5,8,1.2,8,0.9,8C0.8,8,0.7,8,0.6,8.1c0,0,0,0,0,0c-0.1,0-0.1,0.1-0.2,0.1
												c0,0-0.1,0.1-0.1,0.1s0,0.1,0,0.2c0,0.1,0,0.1,0.1,0.2c0,0,0,0,0,0c0.1,0.1,0.1,0.2,0.2,0.2c0.2,0.2,0.5,0.4,0.7,0.5
												l4.5,3.2L7.3,8H1.8z"/>
										</g>
									</mask>
									
										<radialGradient id="Rectangle-path_8_" cx="-602.5123" cy="709.3319" r="5.800000e-03" gradientTransform="matrix(4.599 0 0 4.599 2759.0825 -3264.0073)" gradientUnits="userSpaceOnUse">
										<stop  offset="0" style="stop-color:#FAE1F8"/>
										<stop  offset="0.6" style="stop-color:#FAE1F8"/>
										<stop  offset="0.85" style="stop-color:#F7D6F7"/>
										<stop  offset="1" style="stop-color:#F7D6F7"/>
									</radialGradient>
									<rect id="Rectangle-path_3_" x="0.3" y="8" class="st14" width="7" height="4.7"/>
								</g>
							</g>
						</g>
						<g id="Clipped_4_">
							<defs>
								<filter id="Adobe_OpacityMaskFilter_6_" filterUnits="userSpaceOnUse" x="6.8" y="21.6" width="6" height="6.8">
									<feColorMatrix  type="matrix" values="1 0 0 0 0  0 1 0 0 0  0 0 1 0 0  0 0 0 1 0"/>
								</filter>
							</defs>
							<mask maskUnits="userSpaceOnUse" x="6.8" y="21.6" width="6" height="6.8" id="mask-22_1_">
								<g class="st15">
									<rect id="path-21_1_" y="7.2" class="st3" width="25.5" height="25.5"/>
								</g>
							</mask>
							<g class="st16">
								<g transform="translate(6.000000, 14.000000)">
									<defs>
										<filter id="Adobe_OpacityMaskFilter_7_" filterUnits="userSpaceOnUse" x="0.8" y="7.6" width="6" height="6.8">
											<feColorMatrix  type="matrix" values="1 0 0 0 0  0 1 0 0 0  0 0 1 0 0  0 0 0 1 0"/>
										</filter>
									</defs>
									<mask maskUnits="userSpaceOnUse" x="0.8" y="7.6" width="6" height="6.8" id="mask-24_1_">
										<g class="st17">
											<path id="path-23_1_" class="st3" d="M1.1,12.9c-0.1,0.3-0.2,0.6-0.2,0.8c0,0.1,0,0.2,0,0.3c0,0,0,0,0,0
												c0,0.1,0,0.1,0,0.2c0,0.1,0.1,0.1,0.1,0.1s0.1,0,0.2,0.1c0.1,0,0.1,0,0.2,0c0,0,0,0,0,0c0.1,0,0.2-0.1,0.3-0.1
												c0.2-0.2,0.5-0.3,0.7-0.5l4.5-3.2L4.2,8.7L2.8,7.6L1.1,12.9z"/>
										</g>
									</mask>
									
										<radialGradient id="Rectangle-path_9_" cx="-640.5017" cy="657.0547" r="4.500000e-03" gradientTransform="matrix(5.882 0 0 5.882 3781.5991 -3844.4287)" gradientUnits="userSpaceOnUse">
										<stop  offset="0" style="stop-color:#FAE9FC"/>
										<stop  offset="0.669" style="stop-color:#FAE9FC"/>
										<stop  offset="0.8118" style="stop-color:#F8DEFA"/>
										<stop  offset="0.91" style="stop-color:#F6D4F8"/>
										<stop  offset="1" style="stop-color:#F6D4F8"/>
									</radialGradient>
									<rect id="Rectangle-path_4_" x="0.8" y="7.6" class="st18" width="6" height="6.8"/>
								</g>
							</g>
						</g>
						<g id="Clipped_5_">
							<defs>
								<filter id="Adobe_OpacityMaskFilter_8_" filterUnits="userSpaceOnUse" x="15.2" y="17" width="7" height="4.7">
									<feColorMatrix  type="matrix" values="1 0 0 0 0  0 1 0 0 0  0 0 1 0 0  0 0 0 1 0"/>
								</filter>
							</defs>
							<mask maskUnits="userSpaceOnUse" x="15.2" y="17" width="7" height="4.7" id="mask-27_1_">
								<g class="st19">
									<rect id="path-26_1_" y="7.2" class="st3" width="25.5" height="25.5"/>
								</g>
							</mask>
							<g class="st20">
								<g transform="translate(14.000000, 9.000000)">
									<defs>
										<filter id="Adobe_OpacityMaskFilter_9_" filterUnits="userSpaceOnUse" x="1.2" y="8" width="7" height="4.7">
											<feColorMatrix  type="matrix" values="1 0 0 0 0  0 1 0 0 0  0 0 1 0 0  0 0 0 1 0"/>
										</filter>
									</defs>
									<mask maskUnits="userSpaceOnUse" x="1.2" y="8" width="7" height="4.7" id="mask-29_1_">
										<g class="st21">
											<path id="path-28_1_" class="st3" d="M1.2,8l1.5,4.7l4.5-3.2c0.2-0.2,0.5-0.4,0.7-0.5C8,8.8,8,8.7,8.1,8.7c0,0,0,0,0,0
												c0-0.1,0.1-0.1,0.1-0.2c0-0.1,0-0.1,0-0.2c0-0.1,0-0.1-0.1-0.1c0,0-0.1-0.1-0.2-0.1c0,0,0,0,0,0C7.8,8,7.7,8,7.6,8
												C7.3,8,7,8,6.7,8H1.2z"/>
										</g>
									</mask>
									
										<radialGradient id="Rectangle-path_10_" cx="-621.9767" cy="715.237" r="5.800000e-03" gradientTransform="matrix(4.599 0 0 4.599 2866.6377 -3264.0083)" gradientUnits="userSpaceOnUse">
										<stop  offset="0" style="stop-color:#FAE9FB"/>
										<stop  offset="0.68" style="stop-color:#FAE9FB"/>
										<stop  offset="0.8132" style="stop-color:#F8DEF8"/>
										<stop  offset="0.98" style="stop-color:#F5CAF2"/>
										<stop  offset="1" style="stop-color:#F5CAF2"/>
									</radialGradient>
									<rect id="Rectangle-path_5_" x="1.2" y="8" class="st22" width="7" height="4.7"/>
								</g>
							</g>
						</g>
						<g id="Clipped_6_">
							<defs>
								<filter id="Adobe_OpacityMaskFilter_10_" filterUnits="userSpaceOnUse" x="8.8" y="17" width="7.9" height="7.5">
									<feColorMatrix  type="matrix" values="1 0 0 0 0  0 1 0 0 0  0 0 1 0 0  0 0 0 1 0"/>
								</filter>
							</defs>
							<mask maskUnits="userSpaceOnUse" x="8.8" y="17" width="7.9" height="7.5" id="mask-32_1_">
								<g class="st23">
									<rect id="path-31_1_" y="7.2" class="st3" width="25.5" height="25.5"/>
								</g>
							</mask>
							<polygon id="Shape_2_" class="st24" points="10.3,17 8.8,21.6 10.2,22.7 12.8,24.5 16.7,21.6 15.2,17 							"/>
						</g>
					</g>
				</g>
			</g>
		</g>
		<g id="Clipped_1_">
			<defs>
				<filter id="Adobe_OpacityMaskFilter_11_" filterUnits="userSpaceOnUse" x="10.3" y="10.4" width="4.9" height="6.5">
					<feColorMatrix  type="matrix" values="1 0 0 0 0  0 1 0 0 0  0 0 1 0 0  0 0 0 1 0"/>
				</filter>
			</defs>
			<mask maskUnits="userSpaceOnUse" x="10.3" y="10.4" width="4.9" height="6.5" id="mask-7_1_">
				<g class="st25">
					<rect id="path-6_1_" y="7.2" class="st3" width="25.5" height="25.5"/>
				</g>
			</mask>
			<g class="st26">
				<g transform="translate(10.000000, 3.000000)">
					<defs>
						<filter id="Adobe_OpacityMaskFilter_12_" filterUnits="userSpaceOnUse" x="0.3" y="7.4" width="4.9" height="6.5">
							<feColorMatrix  type="matrix" values="1 0 0 0 0  0 1 0 0 0  0 0 1 0 0  0 0 0 1 0"/>
						</filter>
					</defs>
					<mask maskUnits="userSpaceOnUse" x="0.3" y="7.4" width="4.9" height="6.5" id="mask-9_1_">
						<g class="st27">
							<path id="path-8_1_" class="st3" d="M2.6,7.5c-0.1,0-0.1,0.1-0.1,0.1c0,0,0,0,0,0C2.4,7.7,2.3,7.8,2.3,7.9
								C2.2,8.2,2.1,8.5,2,8.7L0.3,14h4.9L3.5,8.7C3.4,8.5,3.3,8.2,3.2,7.9c0-0.1-0.1-0.2-0.1-0.3c0,0,0,0,0,0C3,7.6,3,7.5,2.9,7.5
								c0,0-0.1,0-0.2,0S2.7,7.4,2.6,7.5"/>
						</g>
					</mask>
					
						<radialGradient id="Rectangle-path_11_" cx="-624.8288" cy="700.9782" r="5.500000e-03" gradientTransform="matrix(4.836 0 0 4.836 3012.239 -3368.4043)" gradientUnits="userSpaceOnUse">
						<stop  offset="0" style="stop-color:#FBE3F8"/>
						<stop  offset="0.745" style="stop-color:#FBE3F8"/>
						<stop  offset="0.8082" style="stop-color:#FADEF6"/>
						<stop  offset="0.8798" style="stop-color:#F9D1F0"/>
						<stop  offset="0.9554" style="stop-color:#F6BAE7"/>
						<stop  offset="0.98" style="stop-color:#F5B1E3"/>
						<stop  offset="1" style="stop-color:#F5B1E3"/>
					</radialGradient>
					<rect id="Rectangle-path_1_" x="0.3" y="7.4" class="st28" width="4.9" height="6.5"/>
				</g>
			</g>
		</g>
	</g>
</g>
</svg>
