<?xml version="1.0" encoding="utf-8"?>
<!-- Generator: Adobe Illustrator 22.0.0, SVG Export Plug-In . SVG Version: 6.00 Build 0)  -->
<svg version="1.1" id="logos" xmlns="http://www.w3.org/2000/svg" xmlns:xlink="http://www.w3.org/1999/xlink" x="0px" y="0px"
	 viewBox="0 0 125 40" style="enable-background:new 0 0 125 40;" xml:space="preserve">
<style type="text/css">
	.st0{fill:#FFFFFF;}
	.st1{fill:url(#SVGID_1_);}
	.st2{fill:url(#SVGID_2_);}
	.st3{fill:url(#SVGID_3_);}
	.st4{fill:url(#SVGID_4_);}
	.st5{fill:url(#SVGID_5_);}
	.st6{fill:url(#SVGID_6_);}
	.st7{fill:url(#SVGID_7_);}
	.st8{fill:url(#SVGID_8_);}
	.st9{fill:none;}
	.st10{fill:url(#SVGID_9_);}
	.st11{fill:url(#SVGID_10_);}
</style>
<g>
	<g>
		<path class="st0" d="M42,7.8v10l0,0.1c-0.7-1-2.2-2.7-5.2-2.7c-3,0-7.6,2.2-7.6,8.4s4.4,8.5,7.8,8.5c2.3,0,4.2-1.2,5.2-2.7v2.3
			h4.2V7.8H42z M37.8,28.5c-2.4,0-4.3-2.1-4.3-4.7s1.9-4.7,4.3-4.7s4.3,2.1,4.3,4.7S40.2,28.5,37.8,28.5z"/>
		<path class="st0" d="M60,25.7c0,0-0.6,2.8-3.8,2.8c-3,0-4.2-2.1-4.3-3.9h10.9c1-3.3-0.6-9.3-7.3-9.3c-3.2,0-8,2.3-8,8.4
			s4.9,8.5,8.4,8.5c3.9,0,6.8-2,7.7-5L60,25.7z M55.6,18.7c2.4,0,3.3,1.7,3.3,2.9h-7C51.9,20.8,53.2,18.7,55.6,18.7z"/>
		<path class="st0" d="M76.2,25.7c0,0-0.6,2.8-3.8,2.8c-3,0-4.2-2.1-4.3-3.9h10.9c1-3.3-0.6-9.3-7.3-9.3c-3.2,0-8,2.3-8,8.4
			s4.9,8.5,8.4,8.5c3.9,0,6.8-2,7.7-5L76.2,25.7z M71.8,18.7c2.4,0,3.3,1.7,3.3,2.9h-7C68.1,20.8,69.4,18.7,71.8,18.7z"/>
		<path class="st0" d="M107.2,25.7c0,0-0.6,2.8-3.8,2.8c-3,0-4.2-2.1-4.3-3.9h10.9c1-3.3-0.6-9.3-7.3-9.3c-3.2,0-8,2.3-8,8.4
			s4.9,8.5,8.4,8.5c3.9,0,6.8-2,7.7-5L107.2,25.7z M102.9,18.7c2.4,0,3.3,1.7,3.3,2.9h-7C99.2,20.8,100.5,18.7,102.9,18.7z"/>
		<polygon class="st0" points="80.3,15.6 80.3,19.4 88.9,19.4 80,28.1 80,31.8 94.7,31.8 94.7,27.9 85.5,27.9 94.4,19.2 94.4,15.6 
					"/>
		<path class="st0" d="M120.3,15.3c-2.1,0-3.4,1.5-3.9,2.5v-2.1h-4.4v16.1h4.4V21.3c0-1.3,1-2.6,2.3-2.6s2.2,0.8,2.1,2.9h4.1
			C125.4,19.2,124.5,15.3,120.3,15.3z"/>
		<g>
			
				<linearGradient id="SVGID_1_" gradientUnits="userSpaceOnUse" x1="25.2539" y1="11.057" x2="-0.522" y2="11.057" gradientTransform="matrix(1 0 0 -1 0 41.276)">
				<stop  offset="0" style="stop-color:#1682B4"/>
				<stop  offset="3.030000e-02" style="stop-color:#1D75B2"/>
				<stop  offset="0.1487" style="stop-color:#3748AB"/>
				<stop  offset="0.2085" style="stop-color:#4137A8"/>
			</linearGradient>
			<rect x="19.3" y="28.7" class="st1" width="5.4" height="3.1"/>
			
				<linearGradient id="SVGID_2_" gradientUnits="userSpaceOnUse" x1="25.2539" y1="11.057" x2="-0.522" y2="11.057" gradientTransform="matrix(1 0 0 -1 0 41.276)">
				<stop  offset="0" style="stop-color:#1682B4"/>
				<stop  offset="0.1823" style="stop-color:#244AB9"/>
				<stop  offset="0.2353" style="stop-color:#4137A8"/>
				<stop  offset="0.4392" style="stop-color:#A71C81"/>
				<stop  offset="0.7381" style="stop-color:#EF8907"/>
				<stop  offset="1" style="stop-color:#F6A400"/>
			</linearGradient>
			<rect y="28.7" class="st2" width="5.4" height="3.1"/>
			
				<linearGradient id="SVGID_3_" gradientUnits="userSpaceOnUse" x1="25.2539" y1="11.057" x2="-0.522" y2="11.057" gradientTransform="matrix(1 0 0 -1 0 41.276)">
				<stop  offset="0" style="stop-color:#1682B4"/>
				<stop  offset="0.1823" style="stop-color:#244AB9"/>
				<stop  offset="0.2353" style="stop-color:#4137A8"/>
				<stop  offset="0.4392" style="stop-color:#A71C81"/>
				<stop  offset="0.7381" style="stop-color:#EF8907"/>
				<stop  offset="1" style="stop-color:#F6A400"/>
			</linearGradient>
			<rect x="12.9" y="28.7" class="st3" width="5.3" height="3.1"/>
			
				<linearGradient id="SVGID_4_" gradientUnits="userSpaceOnUse" x1="25.2539" y1="11.057" x2="-0.522" y2="11.057" gradientTransform="matrix(1 0 0 -1 0 41.276)">
				<stop  offset="0" style="stop-color:#1682B4"/>
				<stop  offset="0.1823" style="stop-color:#244AB9"/>
				<stop  offset="0.2353" style="stop-color:#4137A8"/>
				<stop  offset="0.4392" style="stop-color:#A71C81"/>
				<stop  offset="0.7381" style="stop-color:#EF8907"/>
				<stop  offset="1" style="stop-color:#F6A400"/>
			</linearGradient>
			<rect x="6.5" y="28.7" class="st4" width="5.3" height="3.1"/>
			
				<linearGradient id="SVGID_5_" gradientUnits="userSpaceOnUse" x1="25.2539" y1="15.431" x2="-0.522" y2="15.431" gradientTransform="matrix(1 0 0 -1 0 41.276)">
				<stop  offset="0" style="stop-color:#1682B4"/>
				<stop  offset="3.030000e-02" style="stop-color:#1D75B2"/>
				<stop  offset="0.1487" style="stop-color:#3748AB"/>
				<stop  offset="0.2085" style="stop-color:#4137A8"/>
			</linearGradient>
			<rect x="19.3" y="24.3" class="st5" width="5.4" height="3.1"/>
			
				<linearGradient id="SVGID_6_" gradientUnits="userSpaceOnUse" x1="25.2539" y1="15.431" x2="-0.522" y2="15.431" gradientTransform="matrix(1 0 0 -1 0 41.276)">
				<stop  offset="0" style="stop-color:#1682B4"/>
				<stop  offset="0.1823" style="stop-color:#244AB9"/>
				<stop  offset="0.2353" style="stop-color:#4137A8"/>
				<stop  offset="0.4392" style="stop-color:#A71C81"/>
				<stop  offset="0.7381" style="stop-color:#EF8907"/>
				<stop  offset="1" style="stop-color:#F6A400"/>
			</linearGradient>
			<rect x="6.5" y="24.3" class="st6" width="5.3" height="3.1"/>
			
				<linearGradient id="SVGID_7_" gradientUnits="userSpaceOnUse" x1="25.2539" y1="19.804" x2="-0.522" y2="19.804" gradientTransform="matrix(1 0 0 -1 0 41.276)">
				<stop  offset="0.4032" style="stop-color:#B83664"/>
				<stop  offset="0.636" style="stop-color:#EF8907"/>
				<stop  offset="1" style="stop-color:#F6A400"/>
			</linearGradient>
			<rect x="6.5" y="19.9" class="st7" width="5.3" height="3.1"/>
		</g>
		
			<linearGradient id="SVGID_8_" gradientUnits="userSpaceOnUse" x1="25.2539" y1="15.431" x2="-0.522" y2="15.431" gradientTransform="matrix(1 0 0 -1 0 41.276)">
			<stop  offset="0.2837" style="stop-color:#4137A8"/>
			<stop  offset="0.5091" style="stop-color:#A71C81"/>
		</linearGradient>
		<rect x="12.9" y="24.3" class="st8" width="5.3" height="3.1"/>
		<g>
			<rect x="19.3" y="23" class="st9" width="5.4" height="0"/>
			
				<linearGradient id="SVGID_9_" gradientUnits="userSpaceOnUse" x1="22.032" y1="18.274" x2="22.032" y2="25.609" gradientTransform="matrix(1 0 0 -1 0 41.276)">
				<stop  offset="9.680000e-02" style="stop-color:#1D958D"/>
				<stop  offset="0.7258" style="stop-color:#29AB70"/>
			</linearGradient>
			<rect x="19.3" y="19.9" class="st10" width="5.4" height="3.1"/>
			
				<linearGradient id="SVGID_10_" gradientUnits="userSpaceOnUse" x1="22.032" y1="18.2745" x2="22.032" y2="25.6095" gradientTransform="matrix(1 0 0 -1 0 41.276)">
				<stop  offset="9.680000e-02" style="stop-color:#1D958D"/>
				<stop  offset="0.7258" style="stop-color:#29AB70"/>
			</linearGradient>
			<rect x="19.3" y="15.7" class="st11" width="5.4" height="3.1"/>
		</g>
	</g>
</g>
</svg>
